<svg width="270" height="180" viewBox="0 0 270 180" fill="none" xmlns="http://www.w3.org/2000/svg">
<g clip-path="url(#clip0)">
<rect width="270" height="180" fill="white"/>
<path d="M97.7211 -11L187 191H-6V-11H97.7211Z" fill="#474F95"/>
<path d="M45.938 53.172V55.09H43.334V63H40.94V55.09H38.336V53.172H45.938ZM54.8535 55.188V63H52.4595V61.936C52.2168 62.2813 51.8855 62.5613 51.4655 62.776C51.0548 62.9813 50.5975 63.084 50.0935 63.084C49.4962 63.084 48.9688 62.9533 48.5115 62.692C48.0542 62.4213 47.6995 62.034 47.4475 61.53C47.1955 61.026 47.0695 60.4333 47.0695 59.752V55.188H49.4495V59.43C49.4495 59.9527 49.5848 60.3587 49.8555 60.648C50.1262 60.9373 50.4902 61.082 50.9475 61.082C51.4142 61.082 51.7828 60.9373 52.0535 60.648C52.3242 60.3587 52.4595 59.9527 52.4595 59.43V55.188H54.8535ZM60.9271 60.97V63H59.7091C58.8411 63 58.1644 62.79 57.6791 62.37C57.1937 61.9407 56.9511 61.2453 56.9511 60.284V57.176H55.9991V55.188H56.9511V53.284H59.3451V55.188H60.9131V57.176H59.3451V60.312C59.3451 60.5453 59.4011 60.7133 59.5131 60.816C59.6251 60.9187 59.8117 60.97 60.0731 60.97H60.9271ZM65.8166 63.112C65.0512 63.112 64.3606 62.9487 63.7446 62.622C63.1379 62.2953 62.6572 61.8287 62.3026 61.222C61.9572 60.6153 61.7846 59.906 61.7846 59.094C61.7846 58.2913 61.9619 57.5867 62.3166 56.98C62.6712 56.364 63.1566 55.8927 63.7726 55.566C64.3886 55.2393 65.0792 55.076 65.8446 55.076C66.6099 55.076 67.3006 55.2393 67.9166 55.566C68.5326 55.8927 69.0179 56.364 69.3726 56.98C69.7272 57.5867 69.9046 58.2913 69.9046 59.094C69.9046 59.8967 69.7226 60.606 69.3586 61.222C69.0039 61.8287 68.5139 62.2953 67.8886 62.622C67.2726 62.9487 66.5819 63.112 65.8166 63.112ZM65.8166 61.04C66.2739 61.04 66.6612 60.872 66.9786 60.536C67.3052 60.2 67.4686 59.7193 67.4686 59.094C67.4686 58.4687 67.3099 57.988 66.9926 57.652C66.6846 57.316 66.3019 57.148 65.8446 57.148C65.3779 57.148 64.9906 57.316 64.6826 57.652C64.3746 57.9787 64.2206 58.4593 64.2206 59.094C64.2206 59.7193 64.3699 60.2 64.6686 60.536C64.9766 60.872 65.3592 61.04 65.8166 61.04ZM73.5686 56.49C73.8486 56.0607 74.1986 55.7247 74.6186 55.482C75.0386 55.23 75.5053 55.104 76.0186 55.104V57.638H75.3606C74.7633 57.638 74.3153 57.7687 74.0166 58.03C73.718 58.282 73.5686 58.73 73.5686 59.374V63H71.1746V55.188H73.5686V56.49ZM78.3669 54.376C77.9469 54.376 77.6016 54.2547 77.3309 54.012C77.0696 53.76 76.9389 53.452 76.9389 53.088C76.9389 52.7147 77.0696 52.4067 77.3309 52.164C77.6016 51.912 77.9469 51.786 78.3669 51.786C78.7776 51.786 79.1136 51.912 79.3749 52.164C79.6456 52.4067 79.7809 52.7147 79.7809 53.088C79.7809 53.452 79.6456 53.76 79.3749 54.012C79.1136 54.2547 78.7776 54.376 78.3669 54.376ZM79.5569 55.188V63H77.1629V55.188H79.5569ZM80.8158 59.08C80.8158 58.2773 80.9652 57.5727 81.2638 56.966C81.5718 56.3593 81.9872 55.8927 82.5098 55.566C83.0325 55.2393 83.6158 55.076 84.2598 55.076C84.8105 55.076 85.2912 55.188 85.7018 55.412C86.1218 55.636 86.4438 55.93 86.6678 56.294V55.188H89.0618V63H86.6678V61.894C86.4345 62.258 86.1078 62.552 85.6878 62.776C85.2772 63 84.7965 63.112 84.2458 63.112C83.6112 63.112 83.0325 62.9487 82.5098 62.622C81.9872 62.286 81.5718 61.8147 81.2638 61.208C80.9652 60.592 80.8158 59.8827 80.8158 59.08ZM86.6678 59.094C86.6678 58.4967 86.4998 58.0253 86.1638 57.68C85.8372 57.3347 85.4358 57.162 84.9598 57.162C84.4838 57.162 84.0778 57.3347 83.7418 57.68C83.4152 58.016 83.2518 58.4827 83.2518 59.08C83.2518 59.6773 83.4152 60.1533 83.7418 60.508C84.0778 60.8533 84.4838 61.026 84.9598 61.026C85.4358 61.026 85.8372 60.8533 86.1638 60.508C86.4998 60.1627 86.6678 59.6913 86.6678 59.094ZM93.1878 52.64V63H90.7938V52.64H93.1878Z" fill="white"/>
<path d="M186.444 15.688C186.444 15.008 186.58 14.412 186.852 13.9C187.132 13.38 187.516 12.98 188.004 12.7C188.492 12.42 189.052 12.28 189.684 12.28C190.484 12.28 191.144 12.472 191.664 12.856C192.192 13.232 192.548 13.772 192.732 14.476H191.256C191.136 14.148 190.944 13.892 190.68 13.708C190.416 13.524 190.084 13.432 189.684 13.432C189.124 13.432 188.676 13.632 188.34 14.032C188.012 14.424 187.848 14.976 187.848 15.688C187.848 16.4 188.012 16.956 188.34 17.356C188.676 17.756 189.124 17.956 189.684 17.956C190.476 17.956 191 17.608 191.256 16.912H192.732C192.54 17.584 192.18 18.12 191.652 18.52C191.124 18.912 190.468 19.108 189.684 19.108C189.052 19.108 188.492 18.968 188.004 18.688C187.516 18.4 187.132 18 186.852 17.488C186.58 16.968 186.444 16.368 186.444 15.688ZM200.155 15.532C200.155 15.78 200.139 16.004 200.107 16.204H195.055C195.095 16.732 195.291 17.156 195.643 17.476C195.995 17.796 196.427 17.956 196.939 17.956C197.675 17.956 198.195 17.648 198.499 17.032H199.975C199.775 17.64 199.411 18.14 198.883 18.532C198.363 18.916 197.715 19.108 196.939 19.108C196.307 19.108 195.739 18.968 195.235 18.688C194.739 18.4 194.347 18 194.059 17.488C193.779 16.968 193.639 16.368 193.639 15.688C193.639 15.008 193.775 14.412 194.047 13.9C194.327 13.38 194.715 12.98 195.211 12.7C195.715 12.42 196.291 12.28 196.939 12.28C197.563 12.28 198.119 12.416 198.607 12.688C199.095 12.96 199.475 13.344 199.747 13.84C200.019 14.328 200.155 14.892 200.155 15.532ZM198.727 15.1C198.719 14.596 198.539 14.192 198.187 13.888C197.835 13.584 197.399 13.432 196.879 13.432C196.407 13.432 196.003 13.584 195.667 13.888C195.331 14.184 195.131 14.588 195.067 15.1H198.727ZM202.87 10.12V19H201.502V10.12H202.87ZM204.21 15.688C204.21 15.008 204.346 14.412 204.618 13.9C204.898 13.38 205.282 12.98 205.77 12.7C206.258 12.42 206.818 12.28 207.45 12.28C208.25 12.28 208.91 12.472 209.43 12.856C209.958 13.232 210.314 13.772 210.498 14.476H209.022C208.902 14.148 208.71 13.892 208.446 13.708C208.182 13.524 207.85 13.432 207.45 13.432C206.89 13.432 206.442 13.632 206.106 14.032C205.778 14.424 205.614 14.976 205.614 15.688C205.614 16.4 205.778 16.956 206.106 17.356C206.442 17.756 206.89 17.956 207.45 17.956C208.242 17.956 208.766 17.608 209.022 16.912H210.498C210.306 17.584 209.946 18.12 209.418 18.52C208.89 18.912 208.234 19.108 207.45 19.108C206.818 19.108 206.258 18.968 205.77 18.688C205.282 18.4 204.898 18 204.618 17.488C204.346 16.968 204.21 16.368 204.21 15.688ZM212.557 11.512C212.309 11.512 212.101 11.428 211.933 11.26C211.765 11.092 211.681 10.884 211.681 10.636C211.681 10.388 211.765 10.18 211.933 10.012C212.101 9.844 212.309 9.76 212.557 9.76C212.797 9.76 213.001 9.844 213.169 10.012C213.337 10.18 213.421 10.388 213.421 10.636C213.421 10.884 213.337 11.092 213.169 11.26C213.001 11.428 212.797 11.512 212.557 11.512ZM213.229 12.388V19H211.861V12.388H213.229ZM217.893 19.108C217.269 19.108 216.705 18.968 216.201 18.688C215.697 18.4 215.301 18 215.013 17.488C214.725 16.968 214.581 16.368 214.581 15.688C214.581 15.016 214.729 14.42 215.025 13.9C215.321 13.38 215.725 12.98 216.237 12.7C216.749 12.42 217.321 12.28 217.953 12.28C218.585 12.28 219.157 12.42 219.669 12.7C220.181 12.98 220.585 13.38 220.881 13.9C221.177 14.42 221.325 15.016 221.325 15.688C221.325 16.36 221.173 16.956 220.869 17.476C220.565 17.996 220.149 18.4 219.621 18.688C219.101 18.968 218.525 19.108 217.893 19.108ZM217.893 17.92C218.245 17.92 218.573 17.836 218.877 17.668C219.189 17.5 219.441 17.248 219.633 16.912C219.825 16.576 219.921 16.168 219.921 15.688C219.921 15.208 219.829 14.804 219.645 14.476C219.461 14.14 219.217 13.888 218.913 13.72C218.609 13.552 218.281 13.468 217.929 13.468C217.577 13.468 217.249 13.552 216.945 13.72C216.649 13.888 216.413 14.14 216.237 14.476C216.061 14.804 215.973 15.208 215.973 15.688C215.973 16.4 216.153 16.952 216.513 17.344C216.881 17.728 217.341 17.92 217.893 17.92ZM225.077 19.108C224.557 19.108 224.089 19.016 223.673 18.832C223.265 18.64 222.941 18.384 222.701 18.064C222.461 17.736 222.333 17.372 222.317 16.972H223.733C223.757 17.252 223.889 17.488 224.129 17.68C224.377 17.864 224.685 17.956 225.053 17.956C225.437 17.956 225.733 17.884 225.941 17.74C226.157 17.588 226.265 17.396 226.265 17.164C226.265 16.916 226.145 16.732 225.905 16.612C225.673 16.492 225.301 16.36 224.789 16.216C224.293 16.08 223.889 15.948 223.577 15.82C223.265 15.692 222.993 15.496 222.761 15.232C222.537 14.968 222.425 14.62 222.425 14.188C222.425 13.836 222.529 13.516 222.737 13.228C222.945 12.932 223.241 12.7 223.625 12.532C224.017 12.364 224.465 12.28 224.969 12.28C225.721 12.28 226.325 12.472 226.781 12.856C227.245 13.232 227.493 13.748 227.525 14.404H226.157C226.133 14.108 226.013 13.872 225.797 13.696C225.581 13.52 225.289 13.432 224.921 13.432C224.561 13.432 224.285 13.5 224.093 13.636C223.901 13.772 223.805 13.952 223.805 14.176C223.805 14.352 223.869 14.5 223.997 14.62C224.125 14.74 224.281 14.836 224.465 14.908C224.649 14.972 224.921 15.056 225.281 15.16C225.761 15.288 226.153 15.42 226.457 15.556C226.769 15.684 227.037 15.876 227.261 16.132C227.485 16.388 227.601 16.728 227.609 17.152C227.609 17.528 227.505 17.864 227.297 18.16C227.089 18.456 226.793 18.688 226.409 18.856C226.033 19.024 225.589 19.108 225.077 19.108ZM229.64 19.084C229.392 19.084 229.184 19 229.016 18.832C228.848 18.664 228.764 18.456 228.764 18.208C228.764 17.96 228.848 17.752 229.016 17.584C229.184 17.416 229.392 17.332 229.64 17.332C229.88 17.332 230.084 17.416 230.252 17.584C230.42 17.752 230.504 17.96 230.504 18.208C230.504 18.456 230.42 18.664 230.252 18.832C230.084 19 229.88 19.084 229.64 19.084ZM231.526 15.688C231.526 15.008 231.662 14.412 231.934 13.9C232.214 13.38 232.598 12.98 233.086 12.7C233.574 12.42 234.134 12.28 234.766 12.28C235.566 12.28 236.226 12.472 236.746 12.856C237.274 13.232 237.63 13.772 237.814 14.476H236.338C236.218 14.148 236.026 13.892 235.762 13.708C235.498 13.524 235.166 13.432 234.766 13.432C234.206 13.432 233.758 13.632 233.422 14.032C233.094 14.424 232.93 14.976 232.93 15.688C232.93 16.4 233.094 16.956 233.422 17.356C233.758 17.756 234.206 17.956 234.766 17.956C235.558 17.956 236.082 17.608 236.338 16.912H237.814C237.622 17.584 237.262 18.12 236.734 18.52C236.206 18.912 235.55 19.108 234.766 19.108C234.134 19.108 233.574 18.968 233.086 18.688C232.598 18.4 232.214 18 231.934 17.488C231.662 16.968 231.526 16.368 231.526 15.688ZM242.045 19.108C241.421 19.108 240.857 18.968 240.353 18.688C239.849 18.4 239.453 18 239.165 17.488C238.877 16.968 238.733 16.368 238.733 15.688C238.733 15.016 238.881 14.42 239.177 13.9C239.473 13.38 239.877 12.98 240.389 12.7C240.901 12.42 241.473 12.28 242.105 12.28C242.737 12.28 243.309 12.42 243.821 12.7C244.333 12.98 244.737 13.38 245.033 13.9C245.329 14.42 245.477 15.016 245.477 15.688C245.477 16.36 245.325 16.956 245.021 17.476C244.717 17.996 244.301 18.4 243.773 18.688C243.253 18.968 242.677 19.108 242.045 19.108ZM242.045 17.92C242.397 17.92 242.725 17.836 243.029 17.668C243.341 17.5 243.593 17.248 243.785 16.912C243.977 16.576 244.073 16.168 244.073 15.688C244.073 15.208 243.981 14.804 243.797 14.476C243.613 14.14 243.369 13.888 243.065 13.72C242.761 13.552 242.433 13.468 242.081 13.468C241.729 13.468 241.401 13.552 241.097 13.72C240.801 13.888 240.565 14.14 240.389 14.476C240.213 14.804 240.125 15.208 240.125 15.688C240.125 16.4 240.305 16.952 240.665 17.344C241.033 17.728 241.493 17.92 242.045 17.92ZM254.834 12.28C255.354 12.28 255.818 12.388 256.226 12.604C256.642 12.82 256.966 13.14 257.198 13.564C257.438 13.988 257.558 14.5 257.558 15.1V19H256.202V15.304C256.202 14.712 256.054 14.26 255.758 13.948C255.462 13.628 255.058 13.468 254.546 13.468C254.034 13.468 253.626 13.628 253.322 13.948C253.026 14.26 252.878 14.712 252.878 15.304V19H251.522V15.304C251.522 14.712 251.374 14.26 251.078 13.948C250.782 13.628 250.378 13.468 249.866 13.468C249.354 13.468 248.946 13.628 248.642 13.948C248.346 14.26 248.198 14.712 248.198 15.304V19H246.83V12.388H248.198V13.144C248.422 12.872 248.706 12.66 249.05 12.508C249.394 12.356 249.762 12.28 250.154 12.28C250.682 12.28 251.154 12.392 251.57 12.616C251.986 12.84 252.306 13.164 252.53 13.588C252.73 13.188 253.042 12.872 253.466 12.64C253.89 12.4 254.346 12.28 254.834 12.28Z" fill="#29306C"/>
<path d="M16.9574 136.812C16.9574 135.996 17.1414 135.264 17.5094 134.616C17.8774 133.96 18.3774 133.448 19.0094 133.08C19.6494 132.712 20.3574 132.528 21.1334 132.528C22.0454 132.528 22.8414 132.748 23.5214 133.188C24.2014 133.628 24.6974 134.252 25.0094 135.06H23.7014C23.4694 134.556 23.1334 134.168 22.6934 133.896C22.2614 133.624 21.7414 133.488 21.1334 133.488C20.5494 133.488 20.0254 133.624 19.5614 133.896C19.0974 134.168 18.7334 134.556 18.4694 135.06C18.2054 135.556 18.0734 136.14 18.0734 136.812C18.0734 137.476 18.2054 138.06 18.4694 138.564C18.7334 139.06 19.0974 139.444 19.5614 139.716C20.0254 139.988 20.5494 140.124 21.1334 140.124C21.7414 140.124 22.2614 139.992 22.6934 139.728C23.1334 139.456 23.4694 139.068 23.7014 138.564H25.0094C24.6974 139.364 24.2014 139.984 23.5214 140.424C22.8414 140.856 22.0454 141.072 21.1334 141.072C20.3574 141.072 19.6494 140.892 19.0094 140.532C18.3774 140.164 17.8774 139.656 17.5094 139.008C17.1414 138.36 16.9574 137.628 16.9574 136.812ZM26.2269 137.688C26.2269 137.016 26.3629 136.428 26.6349 135.924C26.9069 135.412 27.2789 135.016 27.7509 134.736C28.2309 134.456 28.7629 134.316 29.3469 134.316C29.9229 134.316 30.4229 134.44 30.8469 134.688C31.2709 134.936 31.5869 135.248 31.7949 135.624V134.424H32.8989V141H31.7949V139.776C31.5789 140.16 31.2549 140.48 30.8229 140.736C30.3989 140.984 29.9029 141.108 29.3349 141.108C28.7509 141.108 28.2229 140.964 27.7509 140.676C27.2789 140.388 26.9069 139.984 26.6349 139.464C26.3629 138.944 26.2269 138.352 26.2269 137.688ZM31.7949 137.7C31.7949 137.204 31.6949 136.772 31.4949 136.404C31.2949 136.036 31.0229 135.756 30.6789 135.564C30.3429 135.364 29.9709 135.264 29.5629 135.264C29.1549 135.264 28.7829 135.36 28.4469 135.552C28.1109 135.744 27.8429 136.024 27.6429 136.392C27.4429 136.76 27.3429 137.192 27.3429 137.688C27.3429 138.192 27.4429 138.632 27.6429 139.008C27.8429 139.376 28.1109 139.66 28.4469 139.86C28.7829 140.052 29.1549 140.148 29.5629 140.148C29.9709 140.148 30.3429 140.052 30.6789 139.86C31.0229 139.66 31.2949 139.376 31.4949 139.008C31.6949 138.632 31.7949 138.196 31.7949 137.7ZM35.8363 135.492C36.0283 135.116 36.3003 134.824 36.6523 134.616C37.0123 134.408 37.4483 134.304 37.9603 134.304V135.432H37.6723C36.4483 135.432 35.8363 136.096 35.8363 137.424V141H34.7443V134.424H35.8363V135.492ZM38.8129 137.688C38.8129 137.016 38.9489 136.428 39.2209 135.924C39.4929 135.412 39.8649 135.016 40.3369 134.736C40.8169 134.456 41.3489 134.316 41.9329 134.316C42.5089 134.316 43.0089 134.44 43.4329 134.688C43.8569 134.936 44.1729 135.248 44.3809 135.624V134.424H45.4849V141H44.3809V139.776C44.1649 140.16 43.8409 140.48 43.4089 140.736C42.9849 140.984 42.4889 141.108 41.9209 141.108C41.3369 141.108 40.8089 140.964 40.3369 140.676C39.8649 140.388 39.4929 139.984 39.2209 139.464C38.9489 138.944 38.8129 138.352 38.8129 137.688ZM44.3809 137.7C44.3809 137.204 44.2809 136.772 44.0809 136.404C43.8809 136.036 43.6089 135.756 43.2649 135.564C42.9289 135.364 42.5569 135.264 42.1489 135.264C41.7409 135.264 41.3689 135.36 41.0329 135.552C40.6969 135.744 40.4289 136.024 40.2289 136.392C40.0289 136.76 39.9289 137.192 39.9289 137.688C39.9289 138.192 40.0289 138.632 40.2289 139.008C40.4289 139.376 40.6969 139.66 41.0329 139.86C41.3689 140.052 41.7409 140.148 42.1489 140.148C42.5569 140.148 42.9289 140.052 43.2649 139.86C43.6089 139.66 43.8809 139.376 44.0809 139.008C44.2809 138.632 44.3809 138.196 44.3809 137.7ZM59.0135 132.696V141H57.9215V134.808L55.1615 141H54.3935L51.6215 134.796V141H50.5295V132.696H51.7055L54.7775 139.56L57.8495 132.696H59.0135ZM66.8654 137.46C66.8654 137.668 66.8534 137.888 66.8294 138.12H61.5734C61.6134 138.768 61.8334 139.276 62.2334 139.644C62.6414 140.004 63.1334 140.184 63.7094 140.184C64.1814 140.184 64.5734 140.076 64.8854 139.86C65.2054 139.636 65.4294 139.34 65.5574 138.972H66.7334C66.5574 139.604 66.2054 140.12 65.6774 140.52C65.1494 140.912 64.4934 141.108 63.7094 141.108C63.0854 141.108 62.5254 140.968 62.0294 140.688C61.5414 140.408 61.1574 140.012 60.8774 139.5C60.5974 138.98 60.4574 138.38 60.4574 137.7C60.4574 137.02 60.5934 136.424 60.8654 135.912C61.1374 135.4 61.5174 135.008 62.0054 134.736C62.5014 134.456 63.0694 134.316 63.7094 134.316C64.3334 134.316 64.8854 134.452 65.3654 134.724C65.8454 134.996 66.2134 135.372 66.4694 135.852C66.7334 136.324 66.8654 136.86 66.8654 137.46ZM65.7374 137.232C65.7374 136.816 65.6454 136.46 65.4614 136.164C65.2774 135.86 65.0254 135.632 64.7054 135.48C64.3934 135.32 64.0454 135.24 63.6614 135.24C63.1094 135.24 62.6374 135.416 62.2454 135.768C61.8614 136.12 61.6414 136.608 61.5854 137.232H65.7374ZM71.5108 134.304C72.3108 134.304 72.9588 134.548 73.4548 135.036C73.9508 135.516 74.1988 136.212 74.1988 137.124V141H73.1188V137.28C73.1188 136.624 72.9548 136.124 72.6268 135.78C72.2988 135.428 71.8508 135.252 71.2828 135.252C70.7068 135.252 70.2468 135.432 69.9028 135.792C69.5668 136.152 69.3988 136.676 69.3988 137.364V141H68.3068V134.424H69.3988V135.36C69.6148 135.024 69.9068 134.764 70.2748 134.58C70.6508 134.396 71.0628 134.304 71.5108 134.304ZM78.6946 134.316C79.2626 134.316 79.7586 134.44 80.1826 134.688C80.6146 134.936 80.9346 135.248 81.1426 135.624V134.424H82.2466V141.144C82.2466 141.744 82.1186 142.276 81.8626 142.74C81.6066 143.212 81.2386 143.58 80.7586 143.844C80.2866 144.108 79.7346 144.24 79.1026 144.24C78.2386 144.24 77.5186 144.036 76.9426 143.628C76.3666 143.22 76.0266 142.664 75.9226 141.96H77.0026C77.1226 142.36 77.3706 142.68 77.7466 142.92C78.1226 143.168 78.5746 143.292 79.1026 143.292C79.7026 143.292 80.1906 143.104 80.5666 142.728C80.9506 142.352 81.1426 141.824 81.1426 141.144V139.764C80.9266 140.148 80.6066 140.468 80.1826 140.724C79.7586 140.98 79.2626 141.108 78.6946 141.108C78.1106 141.108 77.5786 140.964 77.0986 140.676C76.6266 140.388 76.2546 139.984 75.9826 139.464C75.7106 138.944 75.5746 138.352 75.5746 137.688C75.5746 137.016 75.7106 136.428 75.9826 135.924C76.2546 135.412 76.6266 135.016 77.0986 134.736C77.5786 134.456 78.1106 134.316 78.6946 134.316ZM81.1426 137.7C81.1426 137.204 81.0426 136.772 80.8426 136.404C80.6426 136.036 80.3706 135.756 80.0266 135.564C79.6906 135.364 79.3186 135.264 78.9106 135.264C78.5026 135.264 78.1306 135.36 77.7946 135.552C77.4586 135.744 77.1906 136.024 76.9906 136.392C76.7906 136.76 76.6906 137.192 76.6906 137.688C76.6906 138.192 76.7906 138.632 76.9906 139.008C77.1906 139.376 77.4586 139.66 77.7946 139.86C78.1306 140.052 78.5026 140.148 78.9106 140.148C79.3186 140.148 79.6906 140.052 80.0266 139.86C80.3706 139.66 80.6426 139.376 80.8426 139.008C81.0426 138.632 81.1426 138.196 81.1426 137.7ZM86.804 134.316C87.372 134.316 87.868 134.44 88.292 134.688C88.724 134.936 89.044 135.248 89.252 135.624V134.424H90.356V141.144C90.356 141.744 90.228 142.276 89.972 142.74C89.716 143.212 89.348 143.58 88.868 143.844C88.396 144.108 87.844 144.24 87.212 144.24C86.348 144.24 85.628 144.036 85.052 143.628C84.476 143.22 84.136 142.664 84.032 141.96H85.112C85.232 142.36 85.48 142.68 85.856 142.92C86.232 143.168 86.684 143.292 87.212 143.292C87.812 143.292 88.3 143.104 88.676 142.728C89.06 142.352 89.252 141.824 89.252 141.144V139.764C89.036 140.148 88.716 140.468 88.292 140.724C87.868 140.98 87.372 141.108 86.804 141.108C86.22 141.108 85.688 140.964 85.208 140.676C84.736 140.388 84.364 139.984 84.092 139.464C83.82 138.944 83.684 138.352 83.684 137.688C83.684 137.016 83.82 136.428 84.092 135.924C84.364 135.412 84.736 135.016 85.208 134.736C85.688 134.456 86.22 134.316 86.804 134.316ZM89.252 137.7C89.252 137.204 89.152 136.772 88.952 136.404C88.752 136.036 88.48 135.756 88.136 135.564C87.8 135.364 87.428 135.264 87.02 135.264C86.612 135.264 86.24 135.36 85.904 135.552C85.568 135.744 85.3 136.024 85.1 136.392C84.9 136.76 84.8 137.192 84.8 137.688C84.8 138.192 84.9 138.632 85.1 139.008C85.3 139.376 85.568 139.66 85.904 139.86C86.24 140.052 86.612 140.148 87.02 140.148C87.428 140.148 87.8 140.052 88.136 139.86C88.48 139.66 88.752 139.376 88.952 139.008C89.152 138.632 89.252 138.196 89.252 137.7ZM91.7933 137.688C91.7933 137.016 91.9293 136.428 92.2013 135.924C92.4733 135.412 92.8453 135.016 93.3173 134.736C93.7973 134.456 94.3293 134.316 94.9133 134.316C95.4893 134.316 95.9893 134.44 96.4133 134.688C96.8373 134.936 97.1533 135.248 97.3613 135.624V134.424H98.4653V141H97.3613V139.776C97.1453 140.16 96.8213 140.48 96.3893 140.736C95.9653 140.984 95.4693 141.108 94.9013 141.108C94.3173 141.108 93.7893 140.964 93.3173 140.676C92.8453 140.388 92.4733 139.984 92.2013 139.464C91.9293 138.944 91.7933 138.352 91.7933 137.688ZM97.3613 137.7C97.3613 137.204 97.2613 136.772 97.0613 136.404C96.8613 136.036 96.5893 135.756 96.2453 135.564C95.9093 135.364 95.5373 135.264 95.1293 135.264C94.7213 135.264 94.3493 135.36 94.0133 135.552C93.6773 135.744 93.4093 136.024 93.2093 136.392C93.0093 136.76 92.9093 137.192 92.9093 137.688C92.9093 138.192 93.0093 138.632 93.2093 139.008C93.4093 139.376 93.6773 139.66 94.0133 139.86C94.3493 140.052 94.7213 140.148 95.1293 140.148C95.5373 140.148 95.9093 140.052 96.2453 139.86C96.5893 139.66 96.8613 139.376 97.0613 139.008C97.2613 138.632 97.3613 138.196 97.3613 137.7ZM103.515 134.304C104.315 134.304 104.963 134.548 105.459 135.036C105.955 135.516 106.203 136.212 106.203 137.124V141H105.123V137.28C105.123 136.624 104.959 136.124 104.631 135.78C104.303 135.428 103.855 135.252 103.287 135.252C102.711 135.252 102.251 135.432 101.907 135.792C101.571 136.152 101.403 136.676 101.403 137.364V141H100.311V134.424H101.403V135.36C101.619 135.024 101.911 134.764 102.279 134.58C102.655 134.396 103.067 134.304 103.515 134.304ZM109.319 135.324V139.2C109.319 139.52 109.387 139.748 109.523 139.884C109.659 140.012 109.895 140.076 110.23 140.076H111.035V141H110.051C109.443 141 108.987 140.86 108.683 140.58C108.379 140.3 108.227 139.84 108.227 139.2V135.324H107.375V134.424H108.227V132.768H109.319V134.424H111.035V135.324H109.319ZM112.922 133.356C112.714 133.356 112.538 133.284 112.394 133.14C112.25 132.996 112.178 132.82 112.178 132.612C112.178 132.404 112.25 132.228 112.394 132.084C112.538 131.94 112.714 131.868 112.922 131.868C113.122 131.868 113.29 131.94 113.426 132.084C113.57 132.228 113.642 132.404 113.642 132.612C113.642 132.82 113.57 132.996 113.426 133.14C113.29 133.284 113.122 133.356 112.922 133.356ZM113.45 134.424V141H112.358V134.424H113.45ZM123.046 141L119.602 137.184V141H118.51V132.636H119.602V136.512L123.058 132.636H124.438L120.646 136.824L124.474 141H123.046ZM125.286 137.688C125.286 137.016 125.422 136.428 125.694 135.924C125.966 135.412 126.338 135.016 126.81 134.736C127.29 134.456 127.822 134.316 128.406 134.316C128.982 134.316 129.482 134.44 129.906 134.688C130.33 134.936 130.646 135.248 130.854 135.624V134.424H131.958V141H130.854V139.776C130.638 140.16 130.314 140.48 129.882 140.736C129.458 140.984 128.962 141.108 128.394 141.108C127.81 141.108 127.282 140.964 126.81 140.676C126.338 140.388 125.966 139.984 125.694 139.464C125.422 138.944 125.286 138.352 125.286 137.688ZM130.854 137.7C130.854 137.204 130.754 136.772 130.554 136.404C130.354 136.036 130.082 135.756 129.738 135.564C129.402 135.364 129.03 135.264 128.622 135.264C128.214 135.264 127.842 135.36 127.506 135.552C127.17 135.744 126.902 136.024 126.702 136.392C126.502 136.76 126.402 137.192 126.402 137.688C126.402 138.192 126.502 138.632 126.702 139.008C126.902 139.376 127.17 139.66 127.506 139.86C127.842 140.052 128.214 140.148 128.622 140.148C129.03 140.148 129.402 140.052 129.738 139.86C130.082 139.66 130.354 139.376 130.554 139.008C130.754 138.632 130.854 138.196 130.854 137.7ZM135.135 135.324V139.2C135.135 139.52 135.203 139.748 135.339 139.884C135.475 140.012 135.711 140.076 136.047 140.076H136.851V141H135.867C135.259 141 134.803 140.86 134.499 140.58C134.195 140.3 134.043 139.84 134.043 139.2V135.324H133.191V134.424H134.043V132.768H135.135V134.424H136.851V135.324H135.135ZM137.766 137.688C137.766 137.016 137.902 136.428 138.174 135.924C138.446 135.412 138.818 135.016 139.29 134.736C139.77 134.456 140.302 134.316 140.886 134.316C141.462 134.316 141.962 134.44 142.386 134.688C142.81 134.936 143.126 135.248 143.334 135.624V134.424H144.438V141H143.334V139.776C143.118 140.16 142.794 140.48 142.362 140.736C141.938 140.984 141.442 141.108 140.874 141.108C140.29 141.108 139.762 140.964 139.29 140.676C138.818 140.388 138.446 139.984 138.174 139.464C137.902 138.944 137.766 138.352 137.766 137.688ZM143.334 137.7C143.334 137.204 143.234 136.772 143.034 136.404C142.834 136.036 142.562 135.756 142.218 135.564C141.882 135.364 141.51 135.264 141.102 135.264C140.694 135.264 140.322 135.36 139.986 135.552C139.65 135.744 139.382 136.024 139.182 136.392C138.982 136.76 138.882 137.192 138.882 137.688C138.882 138.192 138.982 138.632 139.182 139.008C139.382 139.376 139.65 139.66 139.986 139.86C140.322 140.052 140.694 140.148 141.102 140.148C141.51 140.148 141.882 140.052 142.218 139.86C142.562 139.66 142.834 139.376 143.034 139.008C143.234 138.632 143.334 138.196 143.334 137.7ZM45.9334 159.084C45.3814 159.084 44.8854 158.988 44.4454 158.796C44.0134 158.596 43.6734 158.324 43.4254 157.98C43.1774 157.628 43.0494 157.224 43.0414 156.768H44.2054C44.2454 157.16 44.4054 157.492 44.6854 157.764C44.9734 158.028 45.3894 158.16 45.9334 158.16C46.4534 158.16 46.8614 158.032 47.1574 157.776C47.4614 157.512 47.6134 157.176 47.6134 156.768C47.6134 156.448 47.5254 156.188 47.3494 155.988C47.1734 155.788 46.9534 155.636 46.6894 155.532C46.4254 155.428 46.0694 155.316 45.6214 155.196C45.0694 155.052 44.6254 154.908 44.2894 154.764C43.9614 154.62 43.6774 154.396 43.4374 154.092C43.2054 153.78 43.0894 153.364 43.0894 152.844C43.0894 152.388 43.2054 151.984 43.4374 151.632C43.6694 151.28 43.9934 151.008 44.4094 150.816C44.8334 150.624 45.3174 150.528 45.8614 150.528C46.6454 150.528 47.2854 150.724 47.7814 151.116C48.2854 151.508 48.5694 152.028 48.6334 152.676H47.4334C47.3934 152.356 47.2254 152.076 46.9294 151.836C46.6334 151.588 46.2414 151.464 45.7534 151.464C45.2974 151.464 44.9254 151.584 44.6374 151.824C44.3494 152.056 44.2054 152.384 44.2054 152.808C44.2054 153.112 44.2894 153.36 44.4574 153.552C44.6334 153.744 44.8454 153.892 45.0934 153.996C45.3494 154.092 45.7054 154.204 46.1614 154.332C46.7134 154.484 47.1574 154.636 47.4934 154.788C47.8294 154.932 48.1174 155.16 48.3574 155.472C48.5974 155.776 48.7174 156.192 48.7174 156.72C48.7174 157.128 48.6094 157.512 48.3934 157.872C48.1774 158.232 47.8574 158.524 47.4334 158.748C47.0094 158.972 46.5094 159.084 45.9334 159.084ZM49.9164 155.688C49.9164 155.016 50.0524 154.428 50.3244 153.924C50.5964 153.412 50.9684 153.016 51.4404 152.736C51.9204 152.456 52.4524 152.316 53.0364 152.316C53.6124 152.316 54.1124 152.44 54.5364 152.688C54.9604 152.936 55.2764 153.248 55.4844 153.624V152.424H56.5884V159H55.4844V157.776C55.2684 158.16 54.9444 158.48 54.5124 158.736C54.0884 158.984 53.5924 159.108 53.0244 159.108C52.4404 159.108 51.9124 158.964 51.4404 158.676C50.9684 158.388 50.5964 157.984 50.3244 157.464C50.0524 156.944 49.9164 156.352 49.9164 155.688ZM55.4844 155.7C55.4844 155.204 55.3844 154.772 55.1844 154.404C54.9844 154.036 54.7124 153.756 54.3684 153.564C54.0324 153.364 53.6604 153.264 53.2524 153.264C52.8444 153.264 52.4724 153.36 52.1364 153.552C51.8004 153.744 51.5324 154.024 51.3324 154.392C51.1324 154.76 51.0324 155.192 51.0324 155.688C51.0324 156.192 51.1324 156.632 51.3324 157.008C51.5324 157.376 51.8004 157.66 52.1364 157.86C52.4724 158.052 52.8444 158.148 53.2524 158.148C53.6604 158.148 54.0324 158.052 54.3684 157.86C54.7124 157.66 54.9844 157.376 55.1844 157.008C55.3844 156.632 55.4844 156.196 55.4844 155.7ZM61.6378 152.304C62.4378 152.304 63.0858 152.548 63.5818 153.036C64.0778 153.516 64.3258 154.212 64.3258 155.124V159H63.2458V155.28C63.2458 154.624 63.0818 154.124 62.7538 153.78C62.4258 153.428 61.9778 153.252 61.4098 153.252C60.8338 153.252 60.3738 153.432 60.0298 153.792C59.6938 154.152 59.5258 154.676 59.5258 155.364V159H58.4338V152.424H59.5258V153.36C59.7418 153.024 60.0338 152.764 60.4018 152.58C60.7778 152.396 61.1898 152.304 61.6378 152.304ZM65.7015 155.688C65.7015 155.016 65.8375 154.428 66.1095 153.924C66.3815 153.412 66.7535 153.016 67.2255 152.736C67.7055 152.456 68.2415 152.316 68.8335 152.316C69.3455 152.316 69.8215 152.436 70.2615 152.676C70.7015 152.908 71.0375 153.216 71.2695 153.6V150.12H72.3735V159H71.2695V157.764C71.0535 158.156 70.7335 158.48 70.3095 158.736C69.8855 158.984 69.3895 159.108 68.8215 159.108C68.2375 159.108 67.7055 158.964 67.2255 158.676C66.7535 158.388 66.3815 157.984 66.1095 157.464C65.8375 156.944 65.7015 156.352 65.7015 155.688ZM71.2695 155.7C71.2695 155.204 71.1695 154.772 70.9695 154.404C70.7695 154.036 70.4975 153.756 70.1535 153.564C69.8175 153.364 69.4455 153.264 69.0375 153.264C68.6295 153.264 68.2575 153.36 67.9215 153.552C67.5855 153.744 67.3175 154.024 67.1175 154.392C66.9175 154.76 66.8175 155.192 66.8175 155.688C66.8175 156.192 66.9175 156.632 67.1175 157.008C67.3175 157.376 67.5855 157.66 67.9215 157.86C68.2575 158.052 68.6295 158.148 69.0375 158.148C69.4455 158.148 69.8175 158.052 70.1535 157.86C70.4975 157.66 70.7695 157.376 70.9695 157.008C71.1695 156.632 71.2695 156.196 71.2695 155.7ZM74.7829 151.356C74.5749 151.356 74.3989 151.284 74.2549 151.14C74.1109 150.996 74.0389 150.82 74.0389 150.612C74.0389 150.404 74.1109 150.228 74.2549 150.084C74.3989 149.94 74.5749 149.868 74.7829 149.868C74.9829 149.868 75.1509 149.94 75.2869 150.084C75.4309 150.228 75.5029 150.404 75.5029 150.612C75.5029 150.82 75.4309 150.996 75.2869 151.14C75.1509 151.284 74.9829 151.356 74.7829 151.356ZM75.3109 152.424V159H74.2189V152.424H75.3109ZM86.7073 153.06C86.4753 152.572 86.1393 152.196 85.6993 151.932C85.2593 151.66 84.7473 151.524 84.1633 151.524C83.5793 151.524 83.0513 151.66 82.5793 151.932C82.1153 152.196 81.7473 152.58 81.4753 153.084C81.2113 153.58 81.0793 154.156 81.0793 154.812C81.0793 155.468 81.2113 156.044 81.4753 156.54C81.7473 157.036 82.1153 157.42 82.5793 157.692C83.0513 157.956 83.5793 158.088 84.1633 158.088C84.9793 158.088 85.6513 157.844 86.1793 157.356C86.7073 156.868 87.0153 156.208 87.1033 155.376H83.7673V154.488H88.2673V155.328C88.2033 156.016 87.9873 156.648 87.6193 157.224C87.2513 157.792 86.7673 158.244 86.1673 158.58C85.5673 158.908 84.8993 159.072 84.1633 159.072C83.3873 159.072 82.6793 158.892 82.0393 158.532C81.3993 158.164 80.8913 157.656 80.5153 157.008C80.1473 156.36 79.9633 155.628 79.9633 154.812C79.9633 153.996 80.1473 153.264 80.5153 152.616C80.8913 151.96 81.3993 151.452 82.0393 151.092C82.6793 150.724 83.3873 150.54 84.1633 150.54C85.0513 150.54 85.8353 150.76 86.5153 151.2C87.2033 151.64 87.7033 152.26 88.0153 153.06H86.7073ZM92.5791 159.108C91.9631 159.108 91.4031 158.968 90.8991 158.688C90.4031 158.408 90.0111 158.012 89.7231 157.5C89.4431 156.98 89.3031 156.38 89.3031 155.7C89.3031 155.028 89.4471 154.436 89.7351 153.924C90.0311 153.404 90.4311 153.008 90.9351 152.736C91.4391 152.456 92.0031 152.316 92.6271 152.316C93.2511 152.316 93.8151 152.456 94.3191 152.736C94.8231 153.008 95.2191 153.4 95.5071 153.912C95.8031 154.424 95.9511 155.02 95.9511 155.7C95.9511 156.38 95.7991 156.98 95.4951 157.5C95.1991 158.012 94.7951 158.408 94.2831 158.688C93.7711 158.968 93.2031 159.108 92.5791 159.108ZM92.5791 158.148C92.9711 158.148 93.3391 158.056 93.6831 157.872C94.0271 157.688 94.3031 157.412 94.5111 157.044C94.7271 156.676 94.8351 156.228 94.8351 155.7C94.8351 155.172 94.7311 154.724 94.5231 154.356C94.3151 153.988 94.0431 153.716 93.7071 153.54C93.3711 153.356 93.0071 153.264 92.6151 153.264C92.2151 153.264 91.8471 153.356 91.5111 153.54C91.1831 153.716 90.9191 153.988 90.7191 154.356C90.5191 154.724 90.4191 155.172 90.4191 155.7C90.4191 156.236 90.5151 156.688 90.7071 157.056C90.9071 157.424 91.1711 157.7 91.4991 157.884C91.8271 158.06 92.1871 158.148 92.5791 158.148ZM100.255 159.108C99.6389 159.108 99.0789 158.968 98.5749 158.688C98.0789 158.408 97.6869 158.012 97.3989 157.5C97.1189 156.98 96.9789 156.38 96.9789 155.7C96.9789 155.028 97.1229 154.436 97.4109 153.924C97.7069 153.404 98.1069 153.008 98.6109 152.736C99.1149 152.456 99.6789 152.316 100.303 152.316C100.927 152.316 101.491 152.456 101.995 152.736C102.499 153.008 102.895 153.4 103.183 153.912C103.479 154.424 103.627 155.02 103.627 155.7C103.627 156.38 103.475 156.98 103.171 157.5C102.875 158.012 102.471 158.408 101.959 158.688C101.447 158.968 100.879 159.108 100.255 159.108ZM100.255 158.148C100.647 158.148 101.015 158.056 101.359 157.872C101.703 157.688 101.979 157.412 102.187 157.044C102.403 156.676 102.511 156.228 102.511 155.7C102.511 155.172 102.407 154.724 102.199 154.356C101.991 153.988 101.719 153.716 101.383 153.54C101.047 153.356 100.683 153.264 100.291 153.264C99.8909 153.264 99.5229 153.356 99.1869 153.54C98.8589 153.716 98.5949 153.988 98.3949 154.356C98.1949 154.724 98.0949 155.172 98.0949 155.7C98.0949 156.236 98.1909 156.688 98.3829 157.056C98.5829 157.424 98.8469 157.7 99.1749 157.884C99.5029 158.06 99.8629 158.148 100.255 158.148ZM107.775 152.316C108.343 152.316 108.839 152.44 109.263 152.688C109.695 152.936 110.015 153.248 110.223 153.624V152.424H111.327V159.144C111.327 159.744 111.199 160.276 110.943 160.74C110.687 161.212 110.319 161.58 109.839 161.844C109.367 162.108 108.815 162.24 108.183 162.24C107.319 162.24 106.599 162.036 106.023 161.628C105.447 161.22 105.107 160.664 105.003 159.96H106.083C106.203 160.36 106.451 160.68 106.827 160.92C107.203 161.168 107.655 161.292 108.183 161.292C108.783 161.292 109.271 161.104 109.647 160.728C110.031 160.352 110.223 159.824 110.223 159.144V157.764C110.007 158.148 109.687 158.468 109.263 158.724C108.839 158.98 108.343 159.108 107.775 159.108C107.191 159.108 106.659 158.964 106.179 158.676C105.707 158.388 105.335 157.984 105.063 157.464C104.791 156.944 104.655 156.352 104.655 155.688C104.655 155.016 104.791 154.428 105.063 153.924C105.335 153.412 105.707 153.016 106.179 152.736C106.659 152.456 107.191 152.316 107.775 152.316ZM110.223 155.7C110.223 155.204 110.123 154.772 109.923 154.404C109.723 154.036 109.451 153.756 109.107 153.564C108.771 153.364 108.399 153.264 107.991 153.264C107.583 153.264 107.211 153.36 106.875 153.552C106.539 153.744 106.271 154.024 106.071 154.392C105.871 154.76 105.771 155.192 105.771 155.688C105.771 156.192 105.871 156.632 106.071 157.008C106.271 157.376 106.539 157.66 106.875 157.86C107.211 158.052 107.583 158.148 107.991 158.148C108.399 158.148 108.771 158.052 109.107 157.86C109.451 157.66 109.723 157.376 109.923 157.008C110.123 156.632 110.223 156.196 110.223 155.7ZM114.264 150.12V159H113.172V150.12H114.264ZM122.125 155.46C122.125 155.668 122.113 155.888 122.089 156.12H116.833C116.873 156.768 117.093 157.276 117.493 157.644C117.901 158.004 118.393 158.184 118.969 158.184C119.441 158.184 119.833 158.076 120.145 157.86C120.465 157.636 120.689 157.34 120.817 156.972H121.993C121.817 157.604 121.465 158.12 120.937 158.52C120.409 158.912 119.753 159.108 118.969 159.108C118.345 159.108 117.785 158.968 117.289 158.688C116.801 158.408 116.417 158.012 116.137 157.5C115.857 156.98 115.717 156.38 115.717 155.7C115.717 155.02 115.853 154.424 116.125 153.912C116.397 153.4 116.777 153.008 117.265 152.736C117.761 152.456 118.329 152.316 118.969 152.316C119.593 152.316 120.145 152.452 120.625 152.724C121.105 152.996 121.473 153.372 121.729 153.852C121.993 154.324 122.125 154.86 122.125 155.46ZM120.997 155.232C120.997 154.816 120.905 154.46 120.721 154.164C120.537 153.86 120.285 153.632 119.965 153.48C119.653 153.32 119.305 153.24 118.921 153.24C118.369 153.24 117.897 153.416 117.505 153.768C117.121 154.12 116.901 154.608 116.845 155.232H120.997Z" fill="#EBE3E3"/>
<g clip-path="url(#clip1)">
<g opacity="0.7">
<path opacity="0.7" d="M198.176 88.7622L198.108 88.746V86.1375C200.746 85.4871 203.136 84.0789 204.981 82.0872C206.826 80.0955 208.046 77.6076 208.49 74.9311H208.524C209.191 74.9311 209.731 73.9189 209.731 72.6711C209.731 71.8966 209.523 71.2145 209.206 70.8071C209.254 70.33 209.278 69.8464 209.279 69.3562C209.281 67.4043 208.886 65.4722 208.119 63.6769C207.351 61.8816 206.227 60.2605 204.813 58.9116C204.619 57.9471 204.273 57.0195 203.787 56.1634C202.758 54.3536 201.046 52.4699 201.744 50.5077L197.223 50.9694L197.181 47.9961C195.771 48.2489 195.18 49.8809 194.343 51.0432C192.329 53.8388 188.289 54.2278 185.617 56.4046C184.709 57.1445 182.667 59.3941 183.051 60.8692C181.255 63.3355 180.29 66.3072 180.294 69.3562C180.294 69.8456 180.319 70.3292 180.367 70.8071C180.05 71.2145 179.842 71.8966 179.842 72.6711C179.842 73.92 180.383 74.9311 181.049 74.9311H181.083C181.527 77.6076 182.747 80.0955 184.592 82.0872C186.437 84.0789 188.827 85.4871 191.466 86.1375V88.746L191.397 88.7622C189.841 88.581 174.134 87.3841 177.578 113.169L179.691 120.944L180.161 120.926C180.223 121.706 180.559 122.439 181.11 122.996C181.661 123.552 182.392 123.896 183.172 123.967C183.953 124.037 184.734 123.83 185.376 123.381C186.018 122.933 186.481 122.272 186.682 121.516C189.673 121.505 193.052 121.496 194.776 121.496C196.5 121.496 199.885 121.506 202.87 121.516C203.068 122.276 203.53 122.941 204.174 123.393C204.817 123.845 205.601 124.055 206.384 123.984C207.168 123.913 207.901 123.567 208.453 123.007C209.004 122.447 209.339 121.709 209.397 120.926L209.867 120.944L211.98 113.169C215.441 87.3841 199.732 88.581 198.176 88.7622Z" fill="url(#paint0_linear)"/>
</g>
<path d="M233.653 120.158H159V122.684H233.653V120.158Z" fill="#E0E0E0"/>
<path d="M230.49 122.684H162.164V123.717H230.49V122.684Z" fill="#E0E0E0"/>
<path opacity="0.1" d="M230.49 122.684H162.164V123.028H230.49V122.684Z" fill="black"/>
<path opacity="0.1" d="M181.363 120.35C181.363 120.35 191.381 120.311 194.787 120.311C198.194 120.311 208.211 120.35 208.211 120.35V118.895H181.363V120.35Z" fill="black"/>
<path d="M208.211 120.058C208.211 120.058 198.194 120.019 194.787 120.019C191.381 120.019 181.363 120.058 181.363 120.058V101.667C181.363 98.1134 182.777 94.7054 185.295 92.1926C187.812 89.6797 191.226 88.2679 194.786 88.2676V88.2676C196.549 88.2674 198.295 88.6139 199.923 89.2872C201.552 89.9605 203.032 90.9475 204.279 92.1918C205.525 93.436 206.514 94.9132 207.189 96.539C207.864 98.1648 208.211 99.9073 208.211 101.667V120.058Z" fill="#6C63FF"/>
<path d="M193.516 81.5684H196.06C196.574 81.5684 197.067 81.7722 197.43 82.135C197.794 82.4977 197.998 82.9898 197.998 83.5028V88.8504C197.998 89.7002 197.66 90.5151 197.058 91.116C196.456 91.7169 195.639 92.0545 194.788 92.0545V92.0545C193.937 92.0545 193.12 91.7169 192.518 91.116C191.916 90.5151 191.578 89.7002 191.578 88.8504V83.5028C191.578 82.9898 191.782 82.4977 192.146 82.135C192.509 81.7722 193.002 81.5684 193.516 81.5684V81.5684Z" fill="#FDB797"/>
<path opacity="0.1" d="M191.578 86.4232C193.687 86.9411 195.89 86.9411 197.998 86.4232V81.8594H191.578V86.4232Z" fill="black"/>
<path d="M194.789 83.8982C202.525 83.8982 208.797 77.6381 208.797 69.9159C208.797 62.1937 202.525 55.9336 194.789 55.9336C187.053 55.9336 180.781 62.1937 180.781 69.9159C180.781 77.6381 187.053 83.8982 194.789 83.8982Z" fill="#333333"/>
<path d="M194.787 86.5195C202.201 86.5195 208.211 80.5204 208.211 73.1201C208.211 65.7198 202.201 59.7207 194.787 59.7207C187.373 59.7207 181.363 65.7198 181.363 73.1201C181.363 80.5204 187.373 86.5195 194.787 86.5195Z" fill="#FDB797"/>
<path d="M185.923 57.3976C188.505 55.2934 192.411 54.9183 194.357 52.2151C195.166 51.0921 195.736 49.5142 197.101 49.2695L197.141 52.1436L201.511 51.6957C200.837 53.591 202.492 55.4158 203.486 57.1644C204.219 58.4578 204.62 59.9124 204.653 61.3981C203.136 62.3077 201.254 61.315 199.565 60.7852C197.923 60.2705 196.178 60.2174 194.457 60.1689C193.575 60.1435 192.682 60.1204 191.821 60.3132C191.066 60.4828 190.359 60.8141 189.645 61.113C188.483 61.599 184.812 63.4319 183.732 62.25C182.509 60.9099 184.926 58.2102 185.923 57.3976Z" fill="#333333"/>
<path opacity="0.1" d="M186.653 66.4016C187.366 66.8321 188.203 67.0018 189.027 67.1149C192.466 67.5837 195.967 67.191 199.216 65.9722C199.748 67.3181 201.046 68.2426 202.427 68.6823C203.807 69.1221 205.282 69.144 206.731 69.1613C207.05 69.1613 207.392 69.1614 207.656 68.9848C208.301 68.5496 207.989 67.5535 207.613 66.8725L205.743 63.4929C205.19 62.4934 204.621 61.4731 203.766 60.7159C202.693 59.7683 201.268 59.3239 199.863 59.0434C196.542 58.3839 193.114 58.4981 189.845 59.377C186.35 60.3154 181.862 63.5068 186.653 66.4016Z" fill="black"/>
<path d="M186.653 66.1093C187.366 66.5399 188.203 66.7095 189.027 66.8226C192.466 67.2915 195.967 66.8988 199.216 65.68C199.748 67.0258 201.046 67.9503 202.427 68.3901C203.807 68.8298 205.282 68.8518 206.731 68.8691C207.05 68.8691 207.392 68.8691 207.656 68.6925C208.301 68.2574 207.989 67.2613 207.613 66.5803L205.743 63.1961C205.19 62.1965 204.621 61.1762 203.766 60.419C202.693 59.4714 201.268 59.027 199.863 58.7465C196.542 58.0871 193.114 58.2012 189.845 59.0801C186.35 60.022 181.862 63.2134 186.653 66.1093Z" fill="#333333"/>
<path d="M208.066 75.3054C208.711 75.3054 209.234 74.3272 209.234 73.1205C209.234 71.9138 208.711 70.9355 208.066 70.9355C207.421 70.9355 206.898 71.9138 206.898 73.1205C206.898 74.3272 207.421 75.3054 208.066 75.3054Z" fill="#FDB797"/>
<path d="M181.512 75.3054C182.157 75.3054 182.68 74.3272 182.68 73.1205C182.68 71.9138 182.157 70.9355 181.512 70.9355C180.867 70.9355 180.344 71.9138 180.344 73.1205C180.344 74.3272 180.867 75.3054 181.512 75.3054Z" fill="#FDB797"/>
<path d="M197.945 88.6855C197.945 88.6855 214.925 86.0458 211.423 112.263L209.381 119.778L203.544 119.547C203.544 119.547 207.338 110.809 205.004 104.982C202.669 99.1555 197.945 88.6855 197.945 88.6855Z" fill="#6C63FF"/>
<path d="M191.632 88.6855C191.632 88.6855 174.658 86.0458 178.154 112.263L180.196 119.778L186.033 119.547C186.033 119.547 182.24 110.809 184.574 104.982C186.909 99.1555 191.632 88.6855 191.632 88.6855Z" fill="#6C63FF"/>
<path opacity="0.1" d="M184.282 100.238C184.282 100.238 183.114 109.241 185.157 111.862Z" fill="black"/>
<path opacity="0.1" d="M205.293 100.469C205.293 100.469 206.461 109.241 204.418 111.862Z" fill="black"/>
<path d="M205.726 122.729C207.498 122.729 208.936 121.294 208.936 119.524C208.936 117.755 207.498 116.32 205.726 116.32C203.953 116.32 202.516 117.755 202.516 119.524C202.516 121.294 203.953 122.729 205.726 122.729Z" fill="#FDB797"/>
<path d="M183.851 122.729C185.623 122.729 187.061 121.294 187.061 119.524C187.061 117.755 185.623 116.32 183.851 116.32C182.078 116.32 180.641 117.755 180.641 119.524C180.641 121.294 182.078 122.729 183.851 122.729Z" fill="#FDB797"/>
<g opacity="0.7">
<path opacity="0.7" d="M202.877 101.211H186.679C185.316 101.211 184.211 102.314 184.211 103.674V117.446C184.211 118.807 185.316 119.909 186.679 119.909H202.877C204.24 119.909 205.345 118.807 205.345 117.446V103.674C205.345 102.314 204.24 101.211 202.877 101.211Z" fill="url(#paint1_linear)"/>
</g>
<g opacity="0.7">
<path opacity="0.7" d="M256.534 92.668H240.335C238.972 92.668 237.867 93.7707 237.867 95.1311V108.903C237.867 110.264 238.972 111.366 240.335 111.366H256.534C257.897 111.366 259.001 110.264 259.001 108.903V95.1311C259.001 93.7707 257.897 92.668 256.534 92.668Z" fill="url(#paint2_linear)"/>
</g>
<path d="M256.091 93.0137H240.675C239.312 93.0137 238.207 94.1164 238.207 95.4768V108.556C238.207 109.917 239.312 111.02 240.675 111.02H256.091C257.454 111.02 258.558 109.917 258.558 108.556V95.4768C258.558 94.1164 257.454 93.0137 256.091 93.0137Z" fill="#E0E0E0"/>
<g opacity="0.7">
<path opacity="0.7" d="M243.924 61.2734H227.725C226.363 61.2734 225.258 62.3762 225.258 63.7366V77.5088C225.258 78.8691 226.363 79.9719 227.725 79.9719H243.924C245.287 79.9719 246.392 78.8691 246.392 77.5088V63.7366C246.392 62.3762 245.287 61.2734 243.924 61.2734Z" fill="url(#paint3_linear)"/>
</g>
<path d="M243.536 61.6191H228.12C226.757 61.6191 225.652 62.7219 225.652 64.0823V77.1619C225.652 78.5223 226.757 79.6251 228.12 79.6251H243.536C244.899 79.6251 246.004 78.5223 246.004 77.1619V64.0823C246.004 62.7219 244.899 61.6191 243.536 61.6191Z" fill="#E0E0E0"/>
<path d="M241.102 97.7861V106.558C241.102 107.046 241.619 107.274 241.877 107.327H244.338V98.7402C244.338 98.4213 244.418 97.7225 244.204 97.4681C243.937 97.1501 243.134 96.5936 242.278 96.6201C241.594 96.6413 241.209 97.4063 241.102 97.7861Z" fill="#4285F4"/>
<path d="M244.23 97.4668L244.311 101.813L248.296 104.781L252.281 101.76V99.693V98.6594V98.1293V97.8378V97.5649L248.296 100.568L244.23 97.4668Z" fill="#EA4335"/>
<path d="M255.544 99.3688L252.281 101.812V97.5633C252.635 97.2978 253.379 96.7508 253.528 96.6871C253.714 96.6075 254.191 96.5544 254.801 96.7668C255.289 96.9367 255.5 97.5102 255.544 97.7757V99.3688Z" fill="#FBBC04"/>
<path d="M252.281 107.326V101.76L255.544 99.375C255.553 101.61 255.566 106.186 255.544 106.61C255.523 107.034 255.036 107.264 254.795 107.326H252.281Z" fill="#34A853"/>
<path d="M241.663 96.8304C241.984 96.5124 242.626 96.5831 242.867 96.645L243.616 96.963L244.231 97.4666L244.338 97.7051V97.9171V98.2616V98.5266V99.6927V101.813L241.102 99.3657V97.8551C241.102 97.6961 241.262 97.2279 241.663 96.8304Z" fill="#EA4335" fill-opacity="0.9"/>
<path d="M233.036 73.0531H228.338C228.162 73.0531 228.354 72.6858 228.427 72.5022C229.881 70.0138 232.82 64.971 232.953 64.7066C233.085 64.4421 233.376 64.2842 233.505 64.2383L235.795 68.2876L233.036 73.0531Z" fill="#00AC47"/>
<path d="M238.14 64.2653L235.794 68.287C235.049 66.9648 233.548 64.3039 233.503 64.2377C233.459 64.1716 233.853 64.0817 234.055 64.0449H237.67C238.002 64.0449 238.121 64.1918 238.14 64.2653Z" fill="#00832D"/>
<path d="M238.551 73.0527L235.797 68.2872C236.533 67.0201 238.027 64.4528 238.115 64.3206C238.203 64.1883 238.501 64.5042 238.639 64.6787C240.019 67.0752 242.839 71.9729 243.082 72.3916C243.325 72.8103 243.325 73.016 243.27 73.0527H243.021H242.028H240.869H238.551Z" fill="#FFBA00"/>
<path d="M233.065 73.0536L230.741 77.0478C230.639 77.2241 230.336 76.8091 230.195 76.5796C229.643 75.6338 228.506 73.6652 228.373 73.3566C228.241 73.0481 228.355 73.0261 228.429 73.0536H233.065Z" fill="#0066DA"/>
<path d="M243.161 73.0535H238.547C239.237 74.2288 240.661 76.6455 240.816 76.9099C240.97 77.1744 241.266 76.7997 241.395 76.5794C241.901 75.7071 242.963 73.8633 243.161 73.4667C243.36 73.07 243.244 73.0259 243.161 73.0535Z" fill="#EA4335"/>
<path d="M238.549 73.0527H233.03C232.322 74.274 230.878 76.766 230.767 76.9643C230.657 77.1626 231.104 77.2306 231.325 77.2398C234.131 77.2489 239.874 77.2618 240.404 77.2398C240.934 77.2177 240.95 77.0469 240.868 76.9643L240.73 76.7439L240.592 76.496L240.288 76.0002L239.708 75.0085L238.549 73.0527Z" fill="#2684FC"/>
<path d="M202.438 101.557H187.022C185.659 101.557 184.555 102.659 184.555 104.02V117.099C184.555 118.46 185.659 119.563 187.022 119.563H202.438C203.801 119.563 204.906 118.46 204.906 117.099V104.02C204.906 102.659 203.801 101.557 202.438 101.557Z" fill="#E0E0E0"/>
<path d="M185.24 106.25C185.24 105.907 185.315 105.6 185.465 105.33C185.615 105.057 185.82 104.845 186.08 104.695C186.34 104.542 186.63 104.465 186.95 104.465C187.34 104.465 187.673 104.558 187.95 104.745C188.23 104.928 188.433 105.188 188.56 105.525H188.15C188.05 105.288 187.897 105.103 187.69 104.97C187.487 104.837 187.24 104.77 186.95 104.77C186.693 104.77 186.462 104.83 186.255 104.95C186.052 105.07 185.892 105.243 185.775 105.47C185.658 105.693 185.6 105.953 185.6 106.25C185.6 106.547 185.658 106.807 185.775 107.03C185.892 107.253 186.052 107.425 186.255 107.545C186.462 107.665 186.693 107.725 186.95 107.725C187.24 107.725 187.487 107.66 187.69 107.53C187.897 107.397 188.05 107.213 188.15 106.98H188.56C188.433 107.313 188.23 107.572 187.95 107.755C187.67 107.938 187.337 108.03 186.95 108.03C186.63 108.03 186.34 107.955 186.08 107.805C185.82 107.652 185.615 107.44 185.465 107.17C185.315 106.9 185.24 106.593 185.24 106.25ZM191.727 106.495C191.727 106.615 191.724 106.707 191.717 106.77H189.452C189.462 106.977 189.512 107.153 189.602 107.3C189.692 107.447 189.811 107.558 189.957 107.635C190.104 107.708 190.264 107.745 190.437 107.745C190.664 107.745 190.854 107.69 191.007 107.58C191.164 107.47 191.267 107.322 191.317 107.135H191.687C191.621 107.402 191.477 107.62 191.257 107.79C191.041 107.957 190.767 108.04 190.437 108.04C190.181 108.04 189.951 107.983 189.747 107.87C189.544 107.753 189.384 107.59 189.267 107.38C189.154 107.167 189.097 106.918 189.097 106.635C189.097 106.352 189.154 106.103 189.267 105.89C189.381 105.677 189.539 105.513 189.742 105.4C189.946 105.287 190.177 105.23 190.437 105.23C190.697 105.23 190.924 105.287 191.117 105.4C191.314 105.513 191.464 105.667 191.567 105.86C191.674 106.05 191.727 106.262 191.727 106.495ZM191.372 106.485C191.376 106.282 191.334 106.108 191.247 105.965C191.164 105.822 191.049 105.713 190.902 105.64C190.756 105.567 190.596 105.53 190.422 105.53C190.162 105.53 189.941 105.613 189.757 105.78C189.574 105.947 189.472 106.182 189.452 106.485H191.372ZM192.718 104.3V108H192.368V104.3H192.718ZM193.35 106.635C193.35 106.352 193.407 106.105 193.52 105.895C193.634 105.682 193.79 105.518 193.99 105.405C194.19 105.288 194.419 105.23 194.675 105.23C195.012 105.23 195.289 105.313 195.505 105.48C195.725 105.647 195.867 105.873 195.93 106.16H195.555C195.509 105.963 195.407 105.81 195.25 105.7C195.097 105.587 194.905 105.53 194.675 105.53C194.492 105.53 194.327 105.572 194.18 105.655C194.034 105.738 193.917 105.863 193.83 106.03C193.747 106.193 193.705 106.395 193.705 106.635C193.705 106.875 193.747 107.078 193.83 107.245C193.917 107.412 194.034 107.537 194.18 107.62C194.327 107.703 194.492 107.745 194.675 107.745C194.905 107.745 195.097 107.69 195.25 107.58C195.407 107.467 195.509 107.31 195.555 107.11H195.93C195.867 107.39 195.725 107.615 195.505 107.785C195.285 107.955 195.009 108.04 194.675 108.04C194.419 108.04 194.19 107.983 193.99 107.87C193.79 107.753 193.634 107.59 193.52 107.38C193.407 107.167 193.35 106.918 193.35 106.635ZM196.752 104.755C196.682 104.755 196.622 104.73 196.572 104.68C196.522 104.63 196.497 104.568 196.497 104.495C196.497 104.422 196.522 104.362 196.572 104.315C196.622 104.265 196.682 104.24 196.752 104.24C196.822 104.24 196.882 104.265 196.932 104.315C196.982 104.362 197.007 104.422 197.007 104.495C197.007 104.568 196.982 104.63 196.932 104.68C196.882 104.73 196.822 104.755 196.752 104.755ZM196.927 105.27V108H196.577V105.27H196.927ZM198.914 108.04C198.658 108.04 198.426 107.983 198.219 107.87C198.016 107.753 197.854 107.59 197.734 107.38C197.618 107.167 197.559 106.918 197.559 106.635C197.559 106.352 197.619 106.105 197.739 105.895C197.859 105.682 198.023 105.518 198.229 105.405C198.436 105.288 198.668 105.23 198.924 105.23C199.181 105.23 199.413 105.288 199.619 105.405C199.829 105.518 199.993 105.682 200.109 105.895C200.229 106.105 200.289 106.352 200.289 106.635C200.289 106.915 200.229 107.162 200.109 107.375C199.989 107.588 199.824 107.753 199.614 107.87C199.404 107.983 199.171 108.04 198.914 108.04ZM198.914 107.735C199.094 107.735 199.261 107.695 199.414 107.615C199.568 107.532 199.691 107.408 199.784 107.245C199.881 107.078 199.929 106.875 199.929 106.635C199.929 106.395 199.883 106.193 199.789 106.03C199.696 105.863 199.573 105.74 199.419 105.66C199.266 105.577 199.099 105.535 198.919 105.535C198.739 105.535 198.573 105.577 198.419 105.66C198.266 105.74 198.143 105.863 198.049 106.03C197.959 106.193 197.914 106.395 197.914 106.635C197.914 106.875 197.959 107.078 198.049 107.245C198.143 107.408 198.264 107.532 198.414 107.615C198.568 107.695 198.734 107.735 198.914 107.735ZM201.867 108.04C201.554 108.04 201.297 107.968 201.097 107.825C200.901 107.678 200.791 107.48 200.767 107.23H201.127C201.144 107.383 201.216 107.508 201.342 107.605C201.472 107.698 201.646 107.745 201.862 107.745C202.052 107.745 202.201 107.7 202.307 107.61C202.417 107.52 202.472 107.408 202.472 107.275C202.472 107.182 202.442 107.105 202.382 107.045C202.322 106.985 202.246 106.938 202.152 106.905C202.062 106.868 201.939 106.83 201.782 106.79C201.579 106.737 201.414 106.683 201.287 106.63C201.161 106.577 201.052 106.498 200.962 106.395C200.876 106.288 200.832 106.147 200.832 105.97C200.832 105.837 200.872 105.713 200.952 105.6C201.032 105.487 201.146 105.397 201.292 105.33C201.439 105.263 201.606 105.23 201.792 105.23C202.086 105.23 202.322 105.305 202.502 105.455C202.682 105.602 202.779 105.805 202.792 106.065H202.442C202.432 105.905 202.369 105.777 202.252 105.68C202.139 105.58 201.982 105.53 201.782 105.53C201.606 105.53 201.462 105.572 201.352 105.655C201.242 105.738 201.187 105.842 201.187 105.965C201.187 106.072 201.219 106.16 201.282 106.23C201.349 106.297 201.431 106.35 201.527 106.39C201.624 106.427 201.754 106.468 201.917 106.515C202.114 106.568 202.271 106.62 202.387 106.67C202.504 106.72 202.604 106.793 202.687 106.89C202.771 106.987 202.814 107.115 202.817 107.275C202.817 107.422 202.777 107.553 202.697 107.67C202.617 107.783 202.506 107.873 202.362 107.94C202.219 108.007 202.054 108.04 201.867 108.04Z" fill="#131C33"/>
<path d="M197.312 104.391C197.312 104.667 197.089 104.891 196.812 104.891C196.536 104.891 196.312 104.667 196.312 104.391C196.312 104.114 196.536 103.891 196.812 103.891C197.089 103.891 197.312 104.114 197.312 104.391Z" fill="#FF0000"/>
<path d="M197.526 109.62V111H197.386V109.898L196.894 111H196.792L196.3 109.902V111H196.16V109.62H196.308L196.842 110.816L197.376 109.62H197.526ZM198.832 110.398C198.832 110.446 198.83 110.483 198.828 110.508H197.922C197.926 110.591 197.946 110.661 197.982 110.72C198.018 110.779 198.065 110.823 198.124 110.854C198.182 110.883 198.246 110.898 198.316 110.898C198.406 110.898 198.482 110.876 198.544 110.832C198.606 110.788 198.648 110.729 198.668 110.654H198.816C198.789 110.761 198.732 110.848 198.644 110.916C198.557 110.983 198.448 111.016 198.316 111.016C198.213 111.016 198.121 110.993 198.04 110.948C197.958 110.901 197.894 110.836 197.848 110.752C197.802 110.667 197.78 110.567 197.78 110.454C197.78 110.341 197.802 110.241 197.848 110.156C197.893 110.071 197.956 110.005 198.038 109.96C198.119 109.915 198.212 109.892 198.316 109.892C198.42 109.892 198.51 109.915 198.588 109.96C198.666 110.005 198.726 110.067 198.768 110.144C198.81 110.22 198.832 110.305 198.832 110.398ZM198.69 110.394C198.691 110.313 198.674 110.243 198.64 110.186C198.606 110.129 198.56 110.085 198.502 110.056C198.443 110.027 198.379 110.012 198.31 110.012C198.206 110.012 198.117 110.045 198.044 110.112C197.97 110.179 197.93 110.273 197.922 110.394H198.69ZM199.024 110.452C199.024 110.34 199.046 110.242 199.092 110.158C199.137 110.073 199.199 110.007 199.278 109.962C199.358 109.915 199.448 109.892 199.548 109.892C199.644 109.892 199.73 109.915 199.808 109.962C199.885 110.009 199.942 110.069 199.978 110.144V109.52H200.118V111H199.978V110.756C199.944 110.832 199.89 110.895 199.814 110.944C199.738 110.992 199.648 111.016 199.546 111.016C199.446 111.016 199.356 110.993 199.276 110.946C199.197 110.899 199.135 110.833 199.09 110.748C199.046 110.663 199.024 110.564 199.024 110.452ZM199.978 110.454C199.978 110.366 199.96 110.289 199.924 110.222C199.888 110.155 199.838 110.104 199.776 110.068C199.714 110.032 199.646 110.014 199.572 110.014C199.494 110.014 199.425 110.031 199.364 110.066C199.302 110.101 199.254 110.151 199.218 110.218C199.183 110.283 199.166 110.361 199.166 110.452C199.166 110.541 199.183 110.62 199.218 110.688C199.254 110.755 199.302 110.806 199.364 110.842C199.425 110.877 199.494 110.894 199.572 110.894C199.646 110.894 199.714 110.876 199.776 110.84C199.838 110.804 199.888 110.753 199.924 110.686C199.96 110.619 199.978 110.542 199.978 110.454ZM200.507 109.702C200.479 109.702 200.455 109.692 200.435 109.672C200.415 109.652 200.405 109.627 200.405 109.598C200.405 109.569 200.415 109.545 200.435 109.526C200.455 109.506 200.479 109.496 200.507 109.496C200.535 109.496 200.559 109.506 200.579 109.526C200.599 109.545 200.609 109.569 200.609 109.598C200.609 109.627 200.599 109.652 200.579 109.672C200.559 109.692 200.535 109.702 200.507 109.702ZM200.577 109.908V111H200.437V109.908H200.577ZM200.83 110.452C200.83 110.34 200.852 110.242 200.896 110.158C200.942 110.073 201.004 110.007 201.082 109.962C201.162 109.915 201.252 109.892 201.352 109.892C201.456 109.892 201.546 109.916 201.62 109.964C201.696 110.012 201.751 110.073 201.784 110.148V109.908H201.924V111H201.784V110.758C201.75 110.833 201.694 110.895 201.618 110.944C201.544 110.992 201.454 111.016 201.35 111.016C201.252 111.016 201.162 110.993 201.082 110.946C201.004 110.899 200.942 110.833 200.896 110.748C200.852 110.663 200.83 110.564 200.83 110.452ZM201.784 110.454C201.784 110.366 201.766 110.289 201.73 110.222C201.694 110.155 201.645 110.104 201.582 110.068C201.521 110.032 201.453 110.014 201.378 110.014C201.301 110.014 201.232 110.031 201.17 110.066C201.109 110.101 201.06 110.151 201.024 110.218C200.99 110.283 200.972 110.361 200.972 110.452C200.972 110.541 200.99 110.62 201.024 110.688C201.06 110.755 201.109 110.806 201.17 110.842C201.232 110.877 201.301 110.894 201.378 110.894C201.453 110.894 201.521 110.876 201.582 110.84C201.645 110.804 201.694 110.753 201.73 110.686C201.766 110.619 201.784 110.542 201.784 110.454Z" fill="#131C33"/>
</g>
</g>
<defs>
<linearGradient id="paint0_linear" x1="194.787" y1="123.998" x2="194.787" y2="47.9996" gradientUnits="userSpaceOnUse">
<stop stop-color="#808080" stop-opacity="0.25"/>
<stop offset="0.54" stop-color="#808080" stop-opacity="0.12"/>
<stop offset="1" stop-color="#808080" stop-opacity="0.1"/>
</linearGradient>
<linearGradient id="paint1_linear" x1="6723.53" y1="11750.3" x2="6723.53" y2="8721.2" gradientUnits="userSpaceOnUse">
<stop stop-color="#808080" stop-opacity="0.25"/>
<stop offset="0.54" stop-color="#808080" stop-opacity="0.12"/>
<stop offset="1" stop-color="#808080" stop-opacity="0.1"/>
</linearGradient>
<linearGradient id="paint2_linear" x1="16583.4" y1="10358.1" x2="16583.4" y2="7328.97" gradientUnits="userSpaceOnUse">
<stop stop-color="#808080" stop-opacity="0.25"/>
<stop offset="0.54" stop-color="#808080" stop-opacity="0.12"/>
<stop offset="1" stop-color="#808080" stop-opacity="0.1"/>
</linearGradient>
<linearGradient id="paint3_linear" x1="14267.2" y1="5240.75" x2="14267.2" y2="2211.6" gradientUnits="userSpaceOnUse">
<stop stop-color="#808080" stop-opacity="0.25"/>
<stop offset="0.54" stop-color="#808080" stop-opacity="0.12"/>
<stop offset="1" stop-color="#808080" stop-opacity="0.1"/>
</linearGradient>
<clipPath id="clip0">
<rect width="270" height="180" fill="white"/>
</clipPath>
<clipPath id="clip1">
<rect width="100" height="76" fill="white" transform="translate(159 48)"/>
</clipPath>
</defs>
</svg>
